<svg width="23" height="23" viewBox="0 0 23 23" fill="none" xmlns="http://www.w3.org/2000/svg">
<path fill-rule="evenodd" clip-rule="evenodd" d="M11.3333 0C8.2025 0 5.66667 2.53583 5.66667 5.66667C5.66667 8.7975 8.2025 11.3333 11.3333 11.3333C14.4642 11.3333 17 8.7975 17 5.66667C17 2.53583 14.4642 0 11.3333 0ZM14.3083 5.66667C14.3083 4.02333 12.9767 2.69167 11.3333 2.69167C9.69 2.69167 8.35833 4.02333 8.35833 5.66667C8.35833 7.31 9.69 8.64167 11.3333 8.64167C12.9767 8.64167 14.3083 7.31 14.3083 5.66667ZM19.975 18.4167C19.975 17.51 15.5408 15.4417 11.3333 15.4417C7.12583 15.4417 2.69167 17.51 2.69167 18.4167V19.975H19.975V18.4167ZM0 18.4167C0 14.6483 7.55083 12.75 11.3333 12.75C15.1158 12.75 22.6667 14.6483 22.6667 18.4167V22.6667H0V18.4167Z" fill="white"/>
</svg>
