<svg width="38" height="31" viewBox="0 0 38 31" fill="none" xmlns="http://www.w3.org/2000/svg">
<path fill-rule="evenodd" clip-rule="evenodd" d="M18.7391 0.255596C18.5899 0.174193 18.4095 0.174194 18.2602 0.255597L0.513081 9.93587C0.16558 10.1254 0.165668 10.6244 0.513236 10.8138L6.28061 13.9571C6.44133 14.0447 6.54134 14.2131 6.54134 14.3961V24.0524C6.54134 24.2354 6.64125 24.4037 6.80183 24.4913L18.2602 30.7443C18.4094 30.8258 18.5899 30.8258 18.7392 30.7443L30.1975 24.4913C30.3581 24.4037 30.458 24.2354 30.458 24.0524V14.3961C30.458 14.2131 30.558 14.0447 30.7187 13.9571L33.1354 12.64C33.4686 12.4584 33.8747 12.6996 33.8747 13.079V23.5417C33.8747 23.8178 34.0985 24.0417 34.3747 24.0417H36.7913C37.0675 24.0417 37.2913 23.8178 37.2913 23.5417V10.6718C37.2913 10.4888 37.1914 10.3205 37.0308 10.2329L18.7391 0.255596ZM29.3458 9.93605C29.6932 10.1256 29.6932 10.6244 29.3458 10.8139L18.7391 16.5994C18.5899 16.6808 18.4095 16.6808 18.2602 16.5994L7.65358 10.8139C7.30615 10.6244 7.30615 10.1256 7.65358 9.93605L18.2602 4.1506C18.4095 4.06919 18.5899 4.06919 18.7391 4.1506L29.3458 9.93605ZM18.2601 26.8492C18.4094 26.9307 18.5899 26.9307 18.7393 26.8492L26.781 22.4584C26.9415 22.3708 27.0413 22.2025 27.0413 22.0196V16.8039C27.0413 16.4243 26.6349 16.1832 26.3017 16.3651L18.7393 20.4942C18.5899 20.5757 18.4094 20.5757 18.2601 20.4942L10.6976 16.3651C10.3644 16.1832 9.95801 16.4243 9.95801 16.8039V22.0196C9.95801 22.2025 10.0579 22.3708 10.2184 22.4584L18.2601 26.8492Z" fill="white"/>
</svg>
