<svg width="30" height="28" viewBox="0 0 30 28" fill="none" xmlns="http://www.w3.org/2000/svg">
<path fill-rule="evenodd" clip-rule="evenodd" d="M19.0974 9.65306C19.1698 9.82345 19.3303 9.93994 19.5147 9.95585L28.8231 10.7585C29.2632 10.7965 29.4415 11.3447 29.1079 11.6343L22.0523 17.7577C21.9125 17.8791 21.8512 18.0678 21.893 18.2482L24.0029 27.3478C24.1027 27.7784 23.6358 28.1172 23.2574 27.8888L15.2584 23.0609C15.0995 22.965 14.9005 22.965 14.7416 23.0609L6.7445 27.8877C6.36584 28.1162 5.89873 27.7767 5.99921 27.346L8.12144 18.2489C8.1636 18.0682 8.10218 17.8789 7.9619 17.7574L0.895697 11.6359C0.561398 11.3463 0.740104 10.7972 1.18082 10.7598L10.4846 9.97049C10.6694 9.95481 10.8303 9.83814 10.9027 9.66739L14.54 1.08537C14.7122 0.678971 15.2881 0.678816 15.4606 1.08512L19.0974 9.65306ZM9.62977 22.3504C9.52912 22.7812 9.99635 23.1208 10.3751 22.8922L14.7414 20.2561C14.9004 20.1601 15.0996 20.1602 15.2585 20.2563L19.6393 22.9057C20.018 23.1348 20.4856 22.7951 20.3849 22.3641L19.2236 17.3938C19.1814 17.2131 19.2427 17.0239 19.3829 16.9023L23.243 13.5538C23.5767 13.2643 23.3986 12.7161 22.9586 12.6779L17.8649 12.236C17.6804 12.22 17.5199 12.1033 17.4477 11.9328L15.4612 7.23969C15.2889 6.83262 14.7119 6.83297 14.5401 7.24025L12.5672 11.9173C12.4951 12.0881 12.3344 12.205 12.1497 12.2211L7.0564 12.6629C6.61637 12.7011 6.43833 13.2493 6.77197 13.5388L10.6321 16.8873C10.7723 17.0089 10.8336 17.1981 10.7914 17.3788L9.62977 22.3504Z" fill="white"/>
</svg>
