<svg width="61" height="83" viewBox="0 0 61 83" fill="none" xmlns="http://www.w3.org/2000/svg">
<path fill-rule="evenodd" clip-rule="evenodd" d="M53.1892 27.4167H49.39V19.5833C49.39 8.77333 40.8797 0 30.3939 0C19.908 0 11.3977 8.77333 11.3977 19.5833V27.4167H7.59846C3.41931 27.4167 0 30.9417 0 35.25V74.4167C0 78.725 3.41931 82.25 7.59846 82.25H53.1892C57.3684 82.25 60.7877 78.725 60.7877 74.4167V35.25C60.7877 30.9417 57.3684 27.4167 53.1892 27.4167ZM18.9962 19.5833C18.9962 13.0817 24.0871 7.83333 30.3939 7.83333C36.7006 7.83333 41.7916 13.0817 41.7916 19.5833V27.4167H18.9962V19.5833ZM37.9923 54.8333C37.9923 59.1417 34.573 62.6667 30.3939 62.6667C26.2147 62.6667 22.7954 59.1417 22.7954 54.8333C22.7954 50.525 26.2147 47 30.3939 47C34.573 47 37.9923 50.525 37.9923 54.8333Z" fill="white"/>
</svg>
