<svg width="26" height="26" viewBox="0 0 26 26" fill="none" xmlns="http://www.w3.org/2000/svg">
<path fill-rule="evenodd" clip-rule="evenodd" d="M22.2546 12.9167C22.2546 13.3558 22.2158 13.7692 22.1641 14.1825L24.8896 16.3137C25.135 16.5075 25.1996 16.8563 25.0446 17.1404L22.4612 21.6096C22.345 21.8162 22.1254 21.9325 21.9058 21.9325C21.8283 21.9325 21.7508 21.9196 21.6733 21.8938L18.4571 20.6021C17.7854 21.1058 17.0621 21.545 16.2741 21.8679L15.7833 25.2908C15.7446 25.6008 15.4733 25.8333 15.1504 25.8333H9.98372C9.6608 25.8333 9.38955 25.6008 9.3508 25.2908L8.85997 21.8679C8.07205 21.545 7.34872 21.1187 6.67705 20.6021L3.4608 21.8938C3.39622 21.9196 3.31872 21.9325 3.24122 21.9325C3.00872 21.9325 2.78914 21.8162 2.67289 21.6096L0.0895533 17.1404C-0.0654467 16.8563 -0.000863339 16.5075 0.244553 16.3137L2.96997 14.1825C2.9183 13.7692 2.87955 13.3429 2.87955 12.9167C2.87955 12.4904 2.9183 12.0642 2.96997 11.6508L0.244553 9.51958C-0.000863339 9.32583 -0.0783633 8.97708 0.0895533 8.69292L2.67289 4.22375C2.78914 4.01708 3.00872 3.90083 3.2283 3.90083C3.3058 3.90083 3.3833 3.91375 3.4608 3.93958L6.67705 5.23125C7.34872 4.7275 8.07205 4.28833 8.85997 3.96542L9.3508 0.5425C9.38955 0.2325 9.6608 0 9.98372 0H15.1504C15.4733 0 15.7446 0.2325 15.7833 0.5425L16.2741 3.96542C17.0621 4.28833 17.7854 4.71458 18.4571 5.23125L21.6733 3.93958C21.7379 3.91375 21.8154 3.90083 21.8929 3.90083C22.1254 3.90083 22.345 4.01708 22.4612 4.22375L25.0446 8.69292C25.1996 8.97708 25.135 9.32583 24.8896 9.51958L22.1641 11.6508C22.2158 12.0642 22.2546 12.4775 22.2546 12.9167ZM19.6712 12.9167C19.6712 12.6454 19.6583 12.3742 19.6066 11.9738L19.4258 10.5142L20.5754 9.61L21.9575 8.51208L21.0533 6.94917L19.4129 7.60792L18.0437 8.16333L16.8683 7.25917C16.3516 6.87167 15.835 6.57458 15.2796 6.34208L13.9104 5.78667L13.7037 4.32708L13.4583 2.58333H11.6629L11.4046 4.32708L11.1979 5.78667L9.82872 6.34208C9.29914 6.56167 8.76955 6.87167 8.21414 7.285L7.05164 8.16333L5.7083 7.62083L4.06789 6.96208L3.16372 8.525L4.55872 9.61L5.7083 10.5142L5.52747 11.9738C5.48872 12.3613 5.46289 12.6583 5.46289 12.9167C5.46289 13.175 5.48872 13.4721 5.52747 13.8725L5.7083 15.3321L4.55872 16.2362L3.16372 17.3213L4.06789 18.8842L5.7083 18.2254L7.07747 17.67L8.25289 18.5742C8.76955 18.9617 9.28622 19.2588 9.84164 19.4913L11.2108 20.0467L11.4175 21.5063L11.6629 23.25H13.4712L13.7296 21.5063L13.9362 20.0467L15.3054 19.4913C15.835 19.2717 16.3646 18.9617 16.92 18.5483L18.0825 17.67L19.4258 18.2125L21.0662 18.8713L21.9704 17.3083L20.5754 16.2233L19.4258 15.3192L19.6066 13.8596C19.6454 13.4721 19.6712 13.1879 19.6712 12.9167ZM12.5671 7.75C9.71247 7.75 7.40039 10.0621 7.40039 12.9167C7.40039 15.7712 9.71247 18.0833 12.5671 18.0833C15.4216 18.0833 17.7337 15.7712 17.7337 12.9167C17.7337 10.0621 15.4216 7.75 12.5671 7.75ZM9.98372 12.9167C9.98372 14.3375 11.1462 15.5 12.5671 15.5C13.9879 15.5 15.1504 14.3375 15.1504 12.9167C15.1504 11.4958 13.9879 10.3333 12.5671 10.3333C11.1462 10.3333 9.98372 11.4958 9.98372 12.9167Z" fill="white"/>
</svg>
