<svg width="576" height="262" viewBox="0 0 576 262" fill="none" xmlns="http://www.w3.org/2000/svg">
<path d="M13.926 259.536H114.856V228.808C124.684 215.577 144.341 186.054 144.341 173.807C144.341 158.497 139.238 130.429 145.759 125.61C152.279 120.79 158.8 110.3 152.279 102.929C146.621 96.5324 125.806 107.214 117.621 130.713V100.944C116.983 98.0146 113.495 92.0419 104.649 91.5883C95.8039 91.1347 91.7025 98.9596 90.7574 102.929C89.9069 98.7705 86.0511 90.3975 77.4324 90.1707C68.8137 89.9439 64.9579 97.2585 64.1074 100.944C63.0678 97.353 58.4939 90.1707 48.5143 90.1707C36.0398 90.1707 34.3387 103.496 34.3387 105.764V114.836C34.3387 110.3 31.5036 102.929 17.8951 102.929C4.28651 102.929 2.58543 135.533 2.01842 175.508C1.56479 207.488 9.76781 224.366 13.926 228.808V259.536Z" fill="#A8683A"/>
<path d="M62.4063 213.782C61.1705 187.418 85.8701 176.984 101.814 174.369M34.3387 114.836C34.3387 110.3 31.5036 102.929 17.895 102.929C4.28651 102.929 2.58544 135.533 2.01841 175.508C1.5648 207.488 9.7678 224.366 13.926 228.808V259.536H114.856V228.808C124.684 215.577 144.341 186.054 144.341 173.807C144.341 158.497 139.238 130.429 145.759 125.61C152.279 120.79 158.8 110.3 152.279 102.929C146.621 96.5324 125.806 107.214 117.621 130.713M34.3387 114.836C34.3387 118.465 35.4727 153.394 36.0398 170.404M34.3387 114.836C34.3387 112.568 34.3387 107.578 34.3387 105.764C34.3387 103.496 36.0398 90.1707 48.5143 90.1707C58.4939 90.1707 63.0678 97.353 64.1074 100.944M36.0398 170.404C34.2442 174.374 28.6118 180.951 20.4467 175.508C12.2815 170.064 11.3743 139.974 11.9413 125.61M36.0398 170.404C47.1534 184.693 59.3822 176.358 64.1074 170.404M117.621 130.713C116.373 134.295 115.419 138.174 114.856 142.337C111.454 167.513 107.768 173.807 106.351 173.807C104.952 173.919 103.428 174.104 101.814 174.369M117.621 130.713V100.944C116.983 98.0146 113.495 92.0419 104.649 91.5883C95.8039 91.1347 91.7025 98.9596 90.7574 102.929M90.7574 102.929L88.2058 170.404M90.7574 102.929C89.9069 98.7705 86.0511 90.3975 77.4324 90.1707C68.8137 89.9439 64.9579 97.2585 64.1074 100.944M88.2058 170.404C89.8124 172.386 94.7833 175.953 101.814 174.369M88.2058 170.404C77.319 183.786 67.604 175.98 64.1074 170.404M64.1074 100.944V170.404" stroke="#6C5448" stroke-width="3"/>
<path d="M22.0749 176.889C45.4223 187.243 58.7069 205.156 62.5543 213.209C62.5543 180.605 98.8438 175.219 96.5757 175.219C94.7612 175.219 89.7714 172.762 87.5033 171.533C76.6165 182.193 67.6575 175.975 64.5389 171.533L55.183 177.77H44.1261L35.9043 171.533L31.3681 175.219C29.5013 178.174 25.4826 177.92 22.0749 176.889C20.7628 176.308 19.4189 175.75 18.0431 175.219C19.082 175.783 20.5144 176.417 22.0749 176.889Z" fill="#8F4F21"/>
<path d="M62.4063 213.782C61.1705 187.418 85.8701 176.984 101.814 174.369M34.3387 114.836C34.3387 110.3 31.5036 102.929 17.895 102.929C4.28651 102.929 2.58544 135.533 2.01841 175.508C1.5648 207.488 9.7678 224.366 13.926 228.808V259.536H114.856V228.808C124.684 215.577 144.341 186.054 144.341 173.807C144.341 158.497 139.238 130.429 145.759 125.61C152.279 120.79 158.8 110.3 152.279 102.929C146.621 96.5324 125.806 107.214 117.621 130.713M34.3387 114.836C34.3387 118.465 35.4727 153.394 36.0398 170.404M34.3387 114.836C34.3387 112.568 34.3387 107.578 34.3387 105.764C34.3387 103.496 36.0398 90.1707 48.5143 90.1707C58.4939 90.1707 63.0678 97.353 64.1074 100.944M36.0398 170.404C34.2442 174.374 28.6118 180.951 20.4467 175.508C12.2815 170.064 11.3743 139.974 11.9413 125.61M36.0398 170.404C47.1534 184.693 59.3822 176.358 64.1074 170.404M117.621 130.713C116.373 134.295 115.419 138.174 114.856 142.337C111.454 167.513 107.768 173.807 106.351 173.807C104.952 173.919 103.428 174.104 101.814 174.369M117.621 130.713V100.944C116.983 98.0146 113.495 92.0419 104.649 91.5883C95.8039 91.1347 91.7025 98.9596 90.7574 102.929M90.7574 102.929L88.2058 170.404M90.7574 102.929C89.9069 98.7705 86.0511 90.3975 77.4324 90.1707C68.8137 89.9439 64.9579 97.2585 64.1074 100.944M88.2058 170.404C89.8124 172.386 94.7833 175.953 101.814 174.369M88.2058 170.404C77.319 183.786 67.604 175.98 64.1074 170.404M64.1074 100.944V170.404" stroke="#462618" stroke-width="3" stroke-linecap="round" stroke-linejoin="round"/>
<path d="M376.267 259.536H483.006V225.781C493.825 211.217 531.446 198.823 537.476 186.764C545.591 170.534 562.132 157.426 570.871 153.057C573.576 150.352 577.362 143.444 570.871 137.452C562.756 129.961 544.654 135.579 535.603 146.503C528.363 155.241 515.109 162.836 509.387 165.541C507.021 166.627 501.856 168.24 494.921 168.974C490.9 166.897 481.86 153.753 477.865 117.795C473.87 81.8364 466.213 31.8576 462.884 11.363C461.427 8.24202 456.829 2 450.088 2C443.346 2 440.413 9.28235 439.788 12.9235L447.497 97.5029C445.572 95.1069 442.376 93.2748 436.979 93.1328C427.492 92.8831 423.871 99.3754 422.935 103.433C421.791 99.4794 418.94 93.1328 407.954 93.1328C396.968 93.1328 394.369 104.056 394.369 106.553V117.795C394.369 112.801 394.057 106.553 379.076 106.553C371.146 106.553 368.334 112.676 367.352 124.967C366.478 135.894 367.051 151.696 366.757 172.406C366.257 207.611 371.69 223.383 376.267 228.272V259.536Z" fill="#542F13"/>
<path d="M366.76 170.846C407.458 181.583 426.996 203.409 431.677 212.98C431.677 192.257 445.826 178.337 452.9 173.967C451.843 172.91 451.189 159.761 450.814 145.739C450.845 137.066 450.599 126.428 450.403 120.286C450.444 127.065 450.57 136.588 450.814 145.739C450.796 150.876 450.682 155.323 450.403 157.738C449.654 164.23 440.104 166.061 435.422 166.165L424.811 160.859C423.042 163.356 417.882 168.35 411.391 168.35C404.899 168.35 400.155 163.356 398.595 160.859C398.803 161.379 397.783 163.606 392.04 168.35C386.298 173.094 380.285 168.246 377.996 165.229L366.76 135.267V170.846Z" fill="#381809"/>
<path d="M394.371 117.795C394.371 112.801 394.059 106.553 379.078 106.553C371.148 106.553 368.336 112.676 367.354 124.967M394.371 117.795C394.371 121.789 396.72 143.382 398.905 161.489M394.371 117.795C394.371 115.298 394.371 108.551 394.371 106.553C394.371 104.056 396.97 93.1328 407.956 93.1328C418.942 93.1328 421.792 99.4794 422.937 103.433M398.905 161.489C396.928 165.858 388.067 173.099 379.078 167.106C376.617 164.606 370.826 152.677 367.354 124.967M398.905 161.489C412.802 174.592 420.067 166.165 425.269 159.611M422.937 103.433C423.873 99.3754 427.494 92.8831 436.981 93.1328C442.378 93.2748 445.574 95.1069 447.498 97.5029M422.937 103.433L425.269 159.611M425.269 159.611C429.118 165.749 443.536 170.534 450.09 157.426V103.433C449.686 101.459 448.957 99.319 447.498 97.5029M367.354 124.967C366.48 135.894 367.052 151.696 366.759 172.406C366.259 207.611 371.692 223.383 376.269 228.272V259.536H483.008V225.781C493.827 211.217 531.448 198.823 537.478 186.764C545.592 170.534 562.134 157.426 570.873 153.057C573.578 150.352 577.364 143.444 570.873 137.452C562.758 129.961 544.656 135.579 535.605 146.503C528.365 155.241 515.111 162.836 509.389 165.541C507.023 166.627 501.858 168.24 494.923 168.974M431.988 212.98C432.924 177.089 462.262 167.106 480.051 168.974C485.535 169.55 490.577 169.434 494.923 168.974M494.923 168.974C490.902 166.897 481.862 153.753 477.867 117.795C473.872 81.8364 466.215 31.8576 462.886 11.363C461.429 8.24202 456.831 2 450.09 2C443.348 2 440.415 9.28235 439.79 12.9235L447.498 97.5029" stroke="#2E1105" stroke-width="3" stroke-linejoin="round"/>
<path d="M198.168 260H302.563V227.843C316.16 212.226 333.65 194.698 333.65 177.245C333.65 174.155 332.577 160.472 324.593 151.322C319.581 145.578 311.647 132.537 304.916 126.648L306.478 103.847C306.478 100.156 300.987 92.402 292.735 91.9788C282.973 91.4782 278.173 97.5929 277.13 101.973C276.192 97.3843 273.2 90.3937 263.688 90.1434C254.176 89.8931 249.892 97.9057 248.953 101.973C247.806 98.01 244.406 90.1434 233.392 90.1434C228.38 90.0285 218.806 94.4432 219.893 112.843C219.224 107.778 213.662 100.329 203.721 101.973C196.124 103.23 190.903 105.721 189.613 116.997C188.066 130.526 188.364 151.718 188.104 170.062C187.603 205.356 193.579 221.039 198.168 225.941V260Z" fill="#FEBD95"/>
<path d="M188.729 176.62C229.207 177.37 246.198 202.128 249.633 214.413C248.696 199.421 261.19 186.615 268.373 181.305C274.12 177.058 287.842 174.746 293.984 174.122L292.423 165.689C290.549 168.5 285.551 168.5 280.242 167.251C275.994 166.251 274.932 162.253 274.932 160.379C273.371 165.064 268.373 168.5 259.628 168.5C252.632 168.5 249.425 163.086 248.696 160.379C248.696 162.253 242.762 168.188 234.017 168.5C227.021 168.75 221.732 163.19 219.962 160.379C218.4 163.815 210.592 165.689 204.658 165.064C198.723 164.44 198.099 156.944 196.537 153.82C194.975 150.697 193.726 121.962 193.726 117.902C193.726 114.654 194.351 108.22 194.663 105.409C190.915 107.595 190.29 114.154 188.729 121.025C187.479 126.523 188.208 160.379 188.729 176.62Z" fill="#D9987B"/>
<path d="M219.962 113.842C219.962 108.836 214.34 100.217 203.721 101.973C196.124 103.23 190.903 105.721 189.613 116.997C188.066 130.526 188.364 151.718 188.104 170.062C187.603 205.356 193.579 221.039 198.168 225.941V259.536H302.563V227.843C316.16 212.226 333.65 194.698 333.65 177.245C333.65 174.155 332.577 160.472 324.593 151.322C319.581 145.578 311.647 132.537 304.916 126.648M219.962 113.842C218.463 94.6023 228.291 90.0264 233.392 90.1434C244.406 90.1434 247.806 98.01 248.953 101.973M219.962 113.842C219.962 118.71 219.37 140.068 219.913 158.505M194.038 116.997C195.6 136.33 194.694 160.448 201.847 163.503C209.081 166.592 217.98 164.448 219.962 160.067C219.945 159.549 219.928 159.028 219.913 158.505M277.13 101.973C278.173 97.5929 282.973 91.4782 292.735 91.9788C300.987 92.402 306.478 100.156 306.478 103.847L304.916 126.648M277.13 101.973C276.192 97.3843 273.2 90.3937 263.688 90.1434C254.176 89.8931 249.892 97.9057 248.953 101.973M277.13 101.973C277.13 114.779 276.022 124.37 276.022 126.648M248.953 101.973V158.505M248.953 216.915C248.512 203.534 256.969 176.249 294.33 174.155C294.33 172.923 293.702 169.959 292.735 166.452M304.916 126.648C301.862 122.721 294.094 121.526 287.113 121.963C281.528 122.312 279.748 128.834 251.571 131.832C249.146 148.716 263.757 150.225 276.022 149.254M248.953 158.505C248.243 161.977 244.136 168.919 233.392 168.919C226.521 168.919 219.929 161.977 219.913 158.505M248.953 158.505C248.659 161.524 250.195 167.834 258.691 168.919C267.186 170.004 272.642 164.719 274.307 161.941M276.022 149.254C279.276 148.997 282.365 148.564 284.927 148.198C287.28 149.61 290.734 159.196 292.735 166.452M276.022 149.254L274.307 161.941M274.307 161.941C278.805 170.436 288.466 168.488 292.735 166.452" stroke="#94543A" stroke-width="3" stroke-linecap="round" stroke-linejoin="round"/>
</svg>
